<svg xmlns="http://www.w3.org/2000/svg" version="1.1" xmlns:xlink="http://www.w3.org/1999/xlink" xmlns:svgjs="http://svgjs.dev/svgjs" width="2000" height="1500" viewBox="0 0 2000 1500"><rect width="2000" height="1500" fill="#000000"></rect><g transform="matrix(0.44603033006244425,0,0,0.44603033006244425,552.5803192544536,250)"><svg viewBox="0 0 321 360" data-background-color="#ec6300" preserveAspectRatio="xMidYMid meet" height="2242" width="2000" xmlns="http://www.w3.org/2000/svg" xmlns:xlink="http://www.w3.org/1999/xlink"><g id="tight-bounds" transform="matrix(1,0,0,1,0.5000546608418972,0)"><svg viewBox="0 0 320 360" height="360" width="320"><g><svg></svg></g><g><svg viewBox="0 0 320 360" height="360" width="320"><g><path transform="translate(-119.39272,-98.31927) scale(5.58313,5.58313)" d="M36.7 23.5c0-0.2 0.1-0.4 0.3-0.4 0.2 0 0.4 0.1 0.4 0.4 0.1 0 0.3 0 0.4-0.1 0.4 0 0.8-0.1 1.1 0 0.3 0.1 0.5 0.1 0.8 0.2 0.3 0.1 0.5 0 0.7-0.1 0.4-0.1 0.7-0.3 1.1-0.4 0.2-0.1 0.3-0.1 0.5-0.1 0.2-0.1 0.4-0.1 0.7-0.2 0.5-0.1 1-0.2 1.4-0.4 0.4-0.2 0.8-0.2 1.2-0.3 0.2 0 0.3-0.1 0.5-0.2 0.1 0 0.1-0.1 0.2-0.2 0.2-0.1 0.3-0.2 0.5-0.1 0.1 0.1 0.3 0.1 0.4 0h0.1c0.6 0 1.2-0.1 1.9 0 0.1 0 0.2 0 0.2 0 0.3-0.2 0.7-0.2 1.1-0.2 0.1 0 0.3 0 0.4 0h0.1c0.4 0 0.8 0 1.1 0.1 0.3 0 0.5 0.1 0.8 0.2 0.3 0 0.5 0 0.8 0.1 0.2 0 0.4 0 0.6 0 0.1 0 0.2 0 0.2 0 0.4 0.1 0.8 0.1 1.2 0.1 0.3 0.1 0.6 0.2 1 0.2 0.1 0 0.2 0 0.3 0 0.1 0 0.2 0.1 0.3 0.1l0.1 0.1c0.4 0 0.7 0.2 1.1 0.2 0.1 0 0.3 0 0.4 0.1 0.3 0.2 0.7 0.3 1.1 0.3 0.2 0 0.3 0.1 0.4 0.2 0.3 0.1 0.5 0.2 0.8 0.3 0.2 0.1 0.4 0 0.6 0.1 0.3 0.1 0.7 0.2 1 0.5 0.2 0.2 0.4 0.2 0.7 0.4 0.1 0 0.2 0.1 0.3 0.2 0.3 0.2 0.6 0.4 0.9 0.5 0.1 0 0.2 0.1 0.3 0.1 0.3 0.2 0.6 0.5 1 0.7 0.2 0.1 0.3 0.2 0.5 0.3h0.1c0.3 0.3 0.7 0.5 1 0.8 0.3 0.3 0.5 0.5 0.9 0.7 0 0 0 0 0 0.1 0.1 0.2 0.2 0.3 0.4 0.4 0.2 0.1 0.3 0.2 0.4 0.3 0.3 0.2 0.6 0.4 0.8 0.6 0.1 0.1 0.2 0.2 0.4 0.4 0.1 0.1 0.2 0.2 0.3 0.2 0.4 0.1 0.6 0.4 0.9 0.7 0.2 0.2 0.5 0.5 0.7 0.7 0.1 0.1 0.2 0.3 0.3 0.5 0.2 0.6 0.5 1.2 0.8 1.7 0 0 0 0.1 0.1 0.2v0.1c0.2 0.2 0.3 0.5 0.5 0.7 0.1 0.1 0.1 0.2 0.2 0.3 0.2 0.3 0.3 0.7 0.5 1 0.3 0.5 0.5 1 0.7 1.5v0.1c0.1 0.2 0.2 0.4 0.3 0.7 0 0.2 0.2 0.4 0.3 0.7 0.1 0.5 0.4 1 0.5 1.6 0 0.1 0.1 0.2 0.1 0.4 0.1 0.3 0.2 0.6 0.3 0.9 0 0.1 0.1 0.2 0.2 0.3 0.2 0.2 0.2 0.4 0.2 0.6-0.1 0.4 0 0.8 0.1 1.2 0 0.1 0 0.2 0 0.4 0.1 0.4 0.2 0.9 0.2 1.3 0 0.1 0 0.3 0 0.4 0 0.3 0.1 0.6 0.3 0.9 0 0.1 0.1 0.1 0.1 0.1 0.1 0.1 0.2 0.3 0.3 0.4 0.1 0.1 0.1 0.1 0.2 0.2 0.2 0.2 0.3 0.4 0.3 0.7 0 0.1-0.1 0.3-0.1 0.4 0 0.1 0 0.3 0.1 0.4 0.1 0.1 0.1 0.2 0.1 0.3 0 0.1-0.1 0.2-0.2 0.2v0c-0.1 0.3-0.5 0.4-0.6 0.7-0.1 0.4-0.2 0.8-0.3 1.2-0.1 0.3-0.1 0.5-0.1 0.8 0 0.3-0.1 0.5-0.1 0.8-0.1 0.4-0.2 0.8-0.3 1.2 0 0.2-0.1 0.4-0.1 0.6 0.1 0.1 0.2 0.2 0.3 0.2 0.2 0.2 0.4 0.4 0.6 0.6 0.1 0.1 0.1 0.2 0 0.2-0.1 0.1-0.2 0.1-0.3 0.1-0.1-0.1-0.3-0.2-0.4-0.2-0.1-0.1-0.3-0.2-0.5-0.1 0 0.2-0.1 0.4-0.1 0.5-0.1 0.2-0.2 0.5-0.2 0.7-0.1 0.4-0.3 0.7-0.4 1.1-0.2 0.5-0.4 0.9-0.6 1.3-0.1 0.2-0.2 0.4-0.3 0.6v0c0 0.3-0.3 0.6-0.4 0.9-0.2 0.4-0.4 0.8-0.6 1.3-0.1 0.2-0.2 0.4-0.3 0.5-0.2 0.5-0.4 0.9-0.7 1.3-0.2 0.3-0.4 0.5-0.6 0.6-0.2 0.2-0.4 0.4-0.6 0.6-0.1 0.1-0.2 0.2-0.3 0.3-0.1 0.1-0.1 0.1-0.2 0.2-0.2 0.3-0.5 0.5-0.7 0.8-0.2 0.2-0.3 0.4-0.6 0.6-0.2 0.2-0.4 0.5-0.7 0.6-0.1 0.1-0.2 0.3-0.3 0.4-0.1 0.1-0.2 0.3-0.3 0.4 0 0.2 0.1 0.4 0.1 0.5 0 0.3-0.3 0.4-0.5 0.2-0.3-0.2-0.3-0.2-0.6 0-0.3 0.2-0.6 0.5-1 0.6-0.1 0-0.1 0.1-0.2 0.1-0.2 0.1-0.3 0.3-0.5 0.4-0.2 0.2-0.5 0.3-0.7 0.5-0.1 0.1-0.2 0.1-0.3 0.2-0.3 0.2-0.6 0.3-0.9 0.6-0.1 0.1-0.2 0.1-0.3 0.2 0 0.1 0 0.1 0 0.2 0 0.2-0.2 0.4-0.5 0.3-0.3-0.1-0.5 0-0.8 0-0.3 0.1-0.6 0.3-0.9 0.4-0.1 0-0.2 0.1-0.3 0.2-0.3 0.2-0.6 0.3-0.9 0.4-0.2 0-0.4 0.2-0.6 0.2-0.1 0-0.2 0.1-0.3 0.1h-0.1c-0.4 0.3-0.8 0.5-1.2 0.8-0.1 0-0.1 0.1-0.2 0.2-0.1 0.2-0.2 0.3-0.4 0.3-0.5 0-0.7 0.4-0.6 0.8 0 0.1 0.1 0.2 0.1 0.3 0.1 0.2 0 0.4-0.1 0.5-0.1 0.1-0.4 0.1-0.5-0.1-0.2-0.2-0.3-0.4-0.4-0.7-0.1-0.2-0.3-0.4-0.5-0.5-0.2-0.1-0.4-0.1-0.6 0-0.1 0-0.1 0.1-0.2 0.1-0.2 0.2-0.5 0.3-0.8 0.2-0.1 0-0.3 0-0.3 0.1-0.1 0.1-0.1 0.3 0 0.4 0.2 0.2 0.1 0.4 0.1 0.7 0 0.4-0.3 0.6-0.7 0.4-0.1-0.1-0.2-0.1-0.3-0.2-0.1 0-0.1-0.1-0.1-0.2-0.1-0.1-0.1-0.3-0.2-0.5-0.2 0.1-0.4 0.1-0.6 0.2-0.1 0-0.2 0.1-0.3 0.1-0.3 0-0.4 0-0.5-0.3-0.1-0.3-0.3-0.3-0.5-0.4-0.4-0.1-0.9-0.1-1.3-0.3h-0.1c-0.4-0.3-0.8-0.3-1.3-0.3-0.3 0-0.6 0.1-0.9 0.1-0.3 0-0.5 0.1-0.7 0.3-0.1 0.1-0.2 0.2-0.3 0.2-0.1-0.1-0.1-0.2-0.2-0.3v-0.1c0-0.1-0.1-0.2-0.2-0.1-0.2 0.1-0.4-0.1-0.6-0.2-0.1-0.1-0.3-0.3-0.3-0.5-0.1-0.1-0.2-0.2-0.3-0.2-0.2 0-0.5-0.1-0.7-0.1-0.1 0-0.2 0-0.2-0.1-0.1-0.1-0.2-0.1-0.4-0.1-0.1 0-0.1-0.1-0.2-0.1 0.2 0.2 0.3 0.4 0.4 0.6 0 0.1 0.1 0.1 0.1 0.2 0.1 0.2 0 0.3-0.3 0.3-0.2 0-0.2 0-0.3 0.1 0 0.2 0 0.3 0 0.5 0 0.1 0 0.2-0.2 0.3 0 0-0.1 0-0.1 0.1-0.1 0.1-0.1 0.2 0 0.3 0.3 0.2 0.5 0.3 0.8 0.4 0.3 0 0.3 0.2 0.4 0.4 0.1 0.2 0 0.3-0.1 0.5-0.2 0.2-0.4 0.4-0.6 0.6-0.3 0.1-0.5 0.4-0.8 0.4-0.2 0-0.4-0.1-0.5-0.3-0.1-0.5-0.1-0.9 0.1-1.4 0-0.1 0.1-0.2 0-0.3-0.9 0-0.9-0.2-0.9-0.3 0-0.2 0.1-0.3 0.1-0.5 0.1-0.2 0-0.3-0.3-0.4-0.1 0-0.2 0-0.3 0-0.1 0-0.1-0.1-0.3-0.1 0.2-0.1 0.3-0.1 0.5-0.2-0.1-0.4-0.2-0.7-0.5-0.9-0.1-0.1-0.2-0.2-0.2-0.4 0-0.3-0.2-0.5-0.3-0.7-0.2-0.3-0.6-0.4-0.9-0.4-0.3-0.1-0.5-0.1-0.8-0.2-0.3-0.1-0.6-0.4-0.9-0.5-0.1-0.1-0.2-0.2-0.4-0.3-0.4-0.2-0.7-0.5-1-0.8-0.2-0.1-0.3-0.3-0.5-0.4-0.2-0.2-0.3-0.4-0.5-0.5-0.2-0.2-0.4-0.4-0.7-0.6-0.3-0.2-0.5-0.5-0.8-0.8-0.2-0.3-0.5-0.5-0.8-0.7-0.1 0-0.2 0-0.3 0-0.1 0-0.2 0.1-0.3 0.1-0.3 0.1-0.5 0.3-0.8 0.4 0.1-0.1 0.1-0.1 0-0.3-0.1-0.1-0.2-0.2-0.3-0.2-0.2 0-0.4 0-0.6 0-0.4 0-0.8 0.1-1.2 0.1-0.3 0-0.7 0.1-1 0.2 0.1 0.2 0.1 0.3 0.2 0.5-0.2 0.1-0.4 0.1-0.6 0.1-0.1 0-0.3 0.1-0.4 0.2-0.1 0-0.1 0.1-0.2 0-0.2-0.1-0.4 0-0.6 0.1h-0.1c0 0 0-0.1 0.1-0.1 0.1-0.1 0.2-0.2 0.3-0.3 0.1-0.1 0.2-0.1 0.4-0.2-0.1-0.1-0.1-0.2-0.1-0.2-0.1-0.1-0.2-0.1-0.3 0-0.1 0.1-0.2 0.2-0.3 0.3-0.1 0.1-0.2 0.1-0.3 0-0.1-0.1-0.1-0.2 0-0.3 0-0.1 0.1-0.2 0.2-0.3 0.1-0.1 0.1-0.2 0.2-0.3-0.2-0.2-0.3-0.4-0.5-0.5-0.3-0.2-0.6-0.5-0.8-0.8-0.2-0.4-0.5-0.7-0.9-0.9-0.1-0.1-0.2-0.2-0.3-0.3-0.1-0.1-0.1-0.1-0.2-0.2-0.3 0.1-0.5 0.3-0.8 0.4-0.1 0-0.1 0.1-0.2 0.2-0.1 0.2-0.3 0.2-0.5 0.2-0.1 0-0.2-0.1-0.1-0.2 0.1-0.2 0.2-0.4 0.5-0.3 0 0 0.1 0 0.1-0.1 0.2-0.2 0.4-0.5 0.7-0.7-0.1-0.3-0.3-0.5-0.4-0.7-0.1-0.1-0.1-0.2-0.1-0.4 0-0.1 0-0.1-0.1-0.2 0 0-0.1 0-0.2 0.1-0.1 0.1-0.3 0.2-0.5 0 0-0.1 0-0.2 0.1-0.3l0.1-0.1c0.3-0.1 0.3-0.4 0.3-0.7v-0.1c-0.1-0.2-0.1-0.3 0.1-0.5 0.3-0.2 0.6-0.6 0.7-0.9 0.1-0.2 0.3-0.3 0.5-0.5 0.2-0.2 0.4-0.4 0.5-0.7h0.1c0.4 0.1 0.5-0.2 0.7-0.5 0-0.1 0-0.2 0.1-0.2 0.2-0.2 0.2-0.4 0.1-0.7 0-0.1-0.1-0.3-0.1-0.4 0-0.1 0-0.1-0.1-0.2-0.3-0.2-0.3-0.4 0-0.6 0.2-0.1 0.2-0.3 0.3-0.4 0.1-0.2 0.1-0.4 0.1-0.7-0.1-0.3-0.1-0.7-0.2-1-0.1-0.4-0.2-0.9-0.3-1.3 0-0.1 0-0.1 0-0.2 0-0.3 0-0.5-0.1-0.8-0.1-0.1-0.1-0.3-0.1-0.4-0.1-0.3-0.2-0.5-0.5-0.6-0.3-0.2-0.7-0.3-1-0.5-0.1-0.1-0.2 0-0.3 0.1-0.1 0.2-0.3 0.4-0.4 0.6-0.1 0.1-0.2 0.3-0.3 0.5-0.2 0.2-0.6 0.4-0.9 0.1-0.1-0.2-0.2-0.3 0-0.5 0.2-0.3 0.4-0.6 0.7-0.8 0.1-0.1 0.2-0.3 0.3-0.4 0.1-0.2 0.1-0.4 0.1-0.6-0.1-0.4-0.2-0.8-0.2-1.3 0-0.5 0-0.9 0.1-1.4 0.1-0.2 0.1-0.5 0.2-0.7 0-0.1 0.1-0.3 0.2-0.4 0.2-0.2 0.4-0.4 0.5-0.7 0.1-0.3 0.3-0.6 0.3-0.9 0-0.1 0.1-0.2 0.1-0.3 0-0.1 0.1-0.3 0.1-0.4-0.1-0.3 0-0.5 0.1-0.7 0.1-0.2 0.2-0.5 0.3-0.7 0.2-0.4 0.2-0.9 0.6-1.3 0.1-0.2 0.2-0.4 0.3-0.6 0.1-0.4 0.3-0.7 0.5-1 0.1-0.1 0.1-0.1 0.1-0.2 0.1-0.3 0.3-0.6 0.5-0.9 0.2-0.3 0.2-0.6 0.3-0.9 0-0.1 0-0.2 0.1-0.3 0.3-0.3 0.2-0.7 0.1-1.1-0.2-0.5-0.3-1-0.2-1.5 0-0.1 0-0.2 0.1-0.2 0.1-0.2 0.1-0.3 0.2-0.5v-0.1c0.2-0.2 0.4-0.5 0.7-0.6 0.4-0.2 0.8-0.3 1.3-0.4 0.4 0 0.8-0.2 1.1-0.6 0-0.1 0.1-0.1 0.2-0.2l0.1-0.1c0.1-0.2 0.2-0.3 0.3-0.4 0.2-0.2 0.4-0.5 0.6-0.7 0.2-0.2 0.4-0.5 0.7-0.8l0.1-0.1c0.2-0.2 0.4-0.4 0.6-0.5 0.2-0.2 0.4-0.4 0.6-0.6 0.2-0.2 0.3-0.4 0.5-0.6 0.2-0.1 0.4-0.3 0.6-0.5 0.2-0.2 0.4-0.4 0.5-0.5 0.2-0.2 0.5-0.4 0.7-0.5 0.2-0.1 0.4-0.2 0.5-0.5 0.1-0.3 0.2-0.5 0.3-0.8 0-0.2 0.1-0.4 0.2-0.6 0.1 0 0.2 0 0.4-0.1-0.1-0.1-0.2-0.1-0.2-0.2 0-0.1 0.1-0.2 0.1-0.2 0-0.1 0.1-0.2 0.1-0.3 0 0 0.1 0 0.1-0.1 0 0 0.1 0 0.1-0.1-0.2 0.1-0.3 0-0.4-0.1 0.1 0.1 0.2 0.1 0.4 0.2 0 0 0.1 0 0.1-0.1 0-0.1 0-0.2 0-0.2 0 0-0.1 0-0.2 0-0.1 0-0.2 0.1-0.3 0.1zM54 70.5c0-0.1-0.1-0.1-0.1-0.2-0.1-0.2 0-0.3 0.1-0.4 0.1-0.1 0.2-0.1 0.4-0.1 0.2 0.1 0.3 0.2 0.3 0.4 0 0.1 0 0.3 0 0.4 0.1 0.4 0.1 0.4 0.5 0.4 0.2 0 0.4 0 0.6 0 0.4-0.1 0.8-0.3 1.2-0.4 0.4-0.1 0.8-0.2 1.2-0.3 0.1 0 0.2 0 0.4 0 0.4 0.1 0.7 0 1-0.2 0.1-0.1 0.3-0.1 0.4-0.2 0.2-0.1 0.4-0.1 0.6-0.2 0.5-0.3 1-0.5 1.4-0.8 0.3-0.2 0.6-0.4 0.9-0.6 0.3-0.2 0.6-0.4 0.9-0.6 0.2-0.1 0.5-0.3 0.7-0.5 0.4-0.3 0.7-0.6 1.1-0.8 0.2-0.1 0.3-0.2 0.4-0.3 0.2-0.1 0.3-0.3 0.5-0.4 0.1-0.1 0.2-0.2 0.4-0.3 0.1-0.1 0.1-0.1 0.1-0.2 0.3-0.2 0.6-0.6 0.8-0.9 0.2-0.2 0.4-0.4 0.6-0.7 0.3-0.3 0.5-0.7 0.8-1.1 0.2-0.2 0.4-0.5 0.5-0.7 0.2-0.4 0.4-0.8 0.7-1.1v-0.1c0.2-0.4 0.4-0.8 0.6-1.2 0.3-0.5 0.5-1.1 0.8-1.6 0.1-0.2 0.2-0.4 0.2-0.6 0.2-0.4 0.3-0.8 0.4-1.2 0-0.1 0-0.1 0.1-0.2 0.3-0.6 0.5-1.2 0.6-1.9 0.1-0.4 0.2-0.8 0.3-1.2 0.2-0.6 0.2-1.1 0.3-1.7 0.1-0.4 0.1-0.9 0.1-1.3 0.1-0.6 0.1-1.3 0-1.9 0-0.5-0.1-1.1-0.1-1.6 0-0.5-0.1-0.9-0.2-1.4-0.1-0.5-0.2-0.9-0.3-1.4-0.2-0.4-0.3-0.8-0.4-1.3-0.1-0.4-0.3-0.7-0.3-1.1 0-0.3-0.1-0.6-0.4-0.7-0.3-0.1-0.5-0.2-0.8-0.4-0.6-0.4-0.9-0.9-0.8-1.5 0-0.3 0.1-0.7 0.2-1 0.1-0.3 0.2-0.6 0-0.8-0.1-0.3-0.3-0.5-0.4-0.7-0.2-0.3-0.3-0.5-0.5-0.7-0.2-0.4-0.4-0.8-0.7-1.1-0.4-0.5-0.7-1-1.2-1.4l-0.1-0.1c-0.3-0.4-0.6-0.8-1-1.1-0.2-0.2-0.4-0.4-0.6-0.5-0.1-0.1-0.2-0.2-0.4-0.3-0.3-0.2-0.6-0.3-0.8-0.5-0.3-0.3-0.7-0.5-1-0.7 0 0-0.1 0-0.1-0.1-0.4-0.2-0.7-0.3-1.1-0.5-0.4-0.2-0.8-0.3-1.2-0.3-0.1 0-0.1 0-0.2 0-0.1-0.1-0.3-0.1-0.4-0.1-0.1 0-0.1 0-0.2 0-0.2-0.1-0.5 0-0.7 0-0.4 0.1-0.8 0.1-1.2-0.1-0.5-0.2-0.9-0.4-1.3-0.6-0.3-0.2-0.5-0.4-0.8-0.6-0.6-0.5-1.2-1.1-1.9-1.6 0.1-0.5-0.1-0.6-0.5-0.6-0.2 0-0.4 0.1-0.6 0.2-0.1 0.1-0.1 0.1-0.2 0.2-0.3 0.2-0.5 0.5-0.8 0.7-0.5 0.3-0.7 0.2-1.1 0-0.1-0.1-0.2-0.2-0.3-0.3-0.2-0.2-0.4-0.5-0.5-0.7-0.2-0.4-0.6-0.4-1-0.4-0.2 0-0.5 0.1-0.7 0.1-0.4 0-0.8 0.2-1 0.5-0.2 0.3-0.4 0.6-0.7 0.9-0.1 0.1-0.3 0.2-0.4 0.4-0.2 0.2-0.4 0.2-0.6 0-0.1-0.1-0.2-0.1-0.3-0.2-0.1 0.1-0.2 0.2-0.2 0.3-0.1 0.2-0.2 0.4-0.3 0.7-0.1 0.3-0.3 0.6-0.5 0.8-0.1 0.1-0.1 0.1-0.2 0.2-0.1 0.2-0.4 0.3-0.6 0.3-0.2 0.2-0.4 0.5-0.5 0.7-0.1 0.2-0.2 0.4-0.3 0.7-0.1 0.1-0.1 0.3-0.2 0.4-0.1 0.2-0.1 0.3-0.1 0.5 0.1 0.3-0.1 0.4-0.4 0.5-0.2 0-0.2 0-0.3 0.2 0 0.3 0.1 0.5 0.2 0.8 0.1 0.1 0.2 0.3 0.2 0.4 0 0.2 0.1 0.3 0.3 0.4 0.1 0.1 0.2 0.2 0.3 0.2 0.1 0 0.1 0.1 0.2 0.1 0.1 0.1 0.2 0 0.2-0.1 0.1-0.3 0.2-0.6 0.2-0.9 0.1-0.4 0.1-0.7 0.2-1.1 0.1-0.2 0.2-0.3 0.3-0.4 0 0 0.1 0 0.2 0v0.1c-0.1 0.5-0.3 1.1-0.4 1.6-0.1 0.2-0.1 0.4-0.2 0.6 0 0.1-0.1 0.2-0.2 0.2-0.2 0.1-0.4 0.2-0.6 0.2-0.1 0-0.2 0-0.3 0-0.2-0.1-0.4-0.3-0.6-0.4-0.1-0.1-0.2-0.2-0.3-0.3-0.1-0.2-0.2-0.4-0.3-0.6-0.1-0.2-0.2-0.3-0.4-0.4-0.1-0.1-0.2-0.1-0.3-0.2-0.2-0.2-0.4-0.3-0.7-0.3-0.1 0-0.3 0-0.4 0-0.1 0-0.3 0.1-0.4 0.2-0.2 0.1-0.3 0.1-0.5 0-0.5-0.2-1-0.1-1.5 0.1-0.2 0.1-0.4 0.2-0.6 0.2-0.5 0-0.9 0-1.4 0-0.5 0-0.9-0.1-1.4-0.2-0.2 0-0.4 0-0.6 0-0.4 0.1-0.5 0.4-0.4 0.8 0.1 0.4 0.2 0.9 0.2 1.3 0 0.3 0 0.6 0 0.9 0 0.2 0 0.3 0 0.5 0 0.3-0.1 0.6-0.1 0.9-0.1 0.6-0.4 1.1-0.8 1.5-0.3 0.3-0.7 0.6-1.1 0.7-0.2 0.1-0.4 0.2-0.7 0.3-0.5 0.2-0.9 0.6-1.2 1.1-0.1 0.2-0.2 0.4-0.3 0.6-0.2 0.3-0.3 0.5-0.5 0.8-0.1 0.2-0.3 0.4-0.4 0.6-0.1 0.2-0.3 0.3-0.3 0.5-0.2 0.4-0.3 0.8-0.5 1.2-0.1 0.2-0.1 0.5-0.2 0.7-0.2 0.4-0.2 0.8-0.2 1.3 0 0.1 0 0.2 0 0.4 0 0.5-0.1 1.1-0.1 1.6 0 0.5 0 1 0.1 1.5 0 0.2 0 0.5 0 0.7 0 0.4 0.1 0.9 0.1 1.3 0 0.4 0 0.9 0.2 1.3v0.1c0.1 0.4 0.1 0.8 0.2 1.2 0 0.1 0 0.2 0.1 0.3 0.2 0.6 0.3 1.1 0.5 1.7 0.1 0.4 0.3 0.8 0.4 1.2 0.1 0.4 0.5 0.8 0.6 1.3v0c0.3 0.6 0.6 1.2 1 1.8 0.1 0.2 0.3 0.4 0.4 0.6 0.2 0.3 0.3 0.6 0.5 0.8 0.1 0.2 0.3 0.4 0.4 0.5 0.1 0.2 0.2 0.4 0.4 0.6 0.2 0.2 0.4 0.5 0.6 0.7 0.3 0.5 0.7 0.9 1.1 1.2 0.2 0.2 0.4 0.3 0.6 0.5 0.1 0.1 0.2 0.1 0.2 0.2 0.1 0.1 0.2 0.2 0.4 0.3 0.8 0.4 1.4 1 2.1 1.6 0.3 0.3 0.6 0.6 1 0.8 0.4 0.3 0.7 0.6 1.2 0.7 0 0 0.1 0 0.1 0.1 0.2 0.2 0.5 0.3 0.7 0.4 0.4 0.2 0.9 0.4 1.3 0.6 0.1 0.1 0.3 0.1 0.4 0.2 0.3 0.1 0.6 0.2 0.9 0.3 0.3 0.1 0.5 0.2 0.8 0.2h0.1c0.2 0.1 0.3 0.1 0.5 0 0.1 0 0.2 0 0.2 0.1 0 0.1 0.1 0.1 0.2 0.1 0.1 0 0.2 0 0.4 0 0.1-0.1 0.1-0.2 0.2-0.4 0.1 0.1 0.2 0.1 0.2 0.1 0.1 0.2 0.3 0.2 0.5 0.2h0.1c0.2 0 0.3 0 0.4-0.1 0-0.1 0.2-0.1 0.3-0.1 0.3 0.1 0.6 0.1 0.9 0.2 0.2 0.1 0.5 0.1 0.6-0.1 0.1-0.1 0.2-0.2 0.4-0.1 0.2 0.1 0.3 0.1 0.5 0 0.1 0 0.2 0 0.2 0 0.3 0.1 0.5 0.1 0.8 0.2 0.4 0.1 0.4 0.1 0.7-0.2 0.1-0.1 0.3-0.1 0.4 0 0.1 0.2 0.1 0.3 0.1 0.5 0.1 0 0.1 0 0.2-0.1 0-0.2 0.1-0.2 0.3-0.3 0.1 0.1 0.1 0.1 0.2 0.1 0.2 0.2 0.3 0.2 0.4-0.1 0-0.1 0-0.2 0.1-0.2 0.1 0 0.2 0.1 0.2 0.1 0.1 0.2 0.3 0.3 0.4 0.5 0.2 0.2 0.5 0.2 0.6 0 0.1-0.1 0.2-0.1 0.3-0.1 0-0.1 0-0.2 0-0.3 0.3 0.2 0.2 0.2 0.1 0.2zM37.4 23.8c0.3 0.1 0.5 0.1 0.6-0.1-0.2 0.1-0.4-0.1-0.6 0.1z" fill="#ffffff" fill-rule="nonzero" stroke="none" stroke-width="1" stroke-linecap="butt" stroke-linejoin="miter" stroke-miterlimit="10" stroke-dasharray="" stroke-dashoffset="0" font-family="none" font-weight="none" font-size="none" text-anchor="none" style="mix-blend-mode: normal" data-fill-palette-color="tertiary"></path></g><g transform="matrix(1,0,0,1,71.11826681906557,90)"><svg viewBox="0 0 177.76346636186886 180" height="180" width="177.76346636186886"><g><svg viewBox="0 0 192 194.41565079321208" height="180" width="177.76346636186886"><g transform="matrix(1,0,0,1,0,121.0651508653175)"><svg viewBox="0 0 192 73.35049992789457" height="73.35049992789457" width="192"><g id="textblocktransform"><svg viewBox="0 0 192 73.35049992789457" height="73.35049992789457" width="192" id="textblock"><g><svg viewBox="0 0 192 73.35049992789457" height="73.35049992789457" width="192"><g transform="matrix(1,0,0,1,0,0)"><svg width="192" viewBox="0.1786310676400491 -33.980756993516444 117.97207279309646 45.0693224666741" height="73.35049992789457" data-palette-color="#f7f7f7"><path d="M41.267 3.977v0c-1.041 0.233-2.108 0.165-3.202-0.205-1.087-0.371-2.066-1.126-2.936-2.263-0.87-1.137-1.527-2.698-1.971-4.683v0c-0.364-1.626-0.579-3.498-0.643-5.615-0.066-2.124-0.013-4.281 0.16-6.471 0.179-2.192 0.456-4.201 0.832-6.028v0c-1.909 1.999-3.415 4.505-4.515 7.519-1.101 3.014-1.88 6.399-2.337 10.156v0c0.493 0.983 0.923 1.911 1.29 2.785 0.367 0.874 0.634 1.686 0.801 2.434v0c0.321 1.431 0.23 2.63-0.271 3.596-0.501 0.966-1.597 1.639-3.288 2.018v0c-1.496 0.335-2.67 0.25-3.521-0.257-0.846-0.514-1.404-1.373-1.674-2.577v0c-0.175-0.781-0.239-1.706-0.191-2.775 0.054-1.071 0.21-2.25 0.468-3.538v0c-0.972-1.593-2.122-3.374-3.452-5.345-1.331-1.977-3.049-4.079-5.153-6.306v0c-0.026 2.021-0.062 4.038-0.11 6.051-0.043 2.005-0.04 3.848 0.009 5.531 0.054 1.675 0.205 3.066 0.453 4.172v0c0.401 1.789 1.089 2.574 2.065 2.356v0l0.119 0.076c0.24 1.073 0.177 2.054-0.191 2.943-0.363 0.881-0.915 1.619-1.656 2.215-0.736 0.588-1.559 0.985-2.47 1.189v0c-0.878 0.197-1.781 0.177-2.708-0.06-0.921-0.238-1.741-0.744-2.462-1.519-0.722-0.781-1.239-1.871-1.552-3.269v0c-0.299-1.334-0.39-2.84-0.274-4.52 0.121-1.687 0.355-3.431 0.704-5.23 0.347-1.806 0.718-3.58 1.113-5.322 0.394-1.748 0.736-3.379 1.026-4.893 0.295-1.521 0.423-2.824 0.385-3.908v0c-0.753-0.31-1.503-0.381-2.251-0.213v0c-0.618 0.138-1.2 0.484-1.746 1.036-0.541 0.545-0.982 1.351-1.323 2.418v0l-0.375-0.07c-0.339-1.666-0.321-3.265 0.053-4.797 0.373-1.539 1.026-2.846 1.96-3.924 0.939-1.085 2.075-1.776 3.409-2.075v0c1.529-0.342 3.256-0.029 5.181 0.941 1.925 0.969 3.92 2.828 5.983 5.577 2.07 2.747 4.111 6.628 6.123 11.643v0c0.34-4.278 0.923-7.927 1.75-10.947 0.827-3.02 1.816-5.496 2.968-7.428 1.159-1.933 2.399-3.413 3.719-4.441 1.326-1.035 2.656-1.702 3.99-2v0c1.659-0.372 3.236-0.298 4.732 0.221 1.503 0.517 2.773 1.309 3.812 2.375 1.044 1.064 1.705 2.214 1.982 3.45v0c-0.864-0.046-1.707-0.028-2.53 0.054-0.816 0.08-1.597 0.204-2.345 0.371v0c-0.748 0.168-1.453 0.377-2.114 0.628v0c0.042 1.562 0.107 3.3 0.194 5.213 0.086 1.907 0.212 3.816 0.38 5.726 0.175 1.908 0.437 3.643 0.787 5.203v0c0.357 1.594 0.811 2.859 1.362 3.794 0.551 0.935 1.233 1.312 2.046 1.131v0c0.52-0.117 0.996-0.462 1.428-1.038 0.438-0.576 0.681-1.365 0.731-2.366v0l0.374 0.069c0.481 2.147 0.522 4.009 0.124 5.588-0.399 1.572-1.083 2.835-2.051 3.79-0.963 0.947-2.03 1.551-3.201 1.814zM59.055-24.769v0c-1.333 0.026-2.434-0.358-3.304-1.155-0.863-0.803-1.306-1.821-1.331-3.054v0c-0.026-1.333 0.451-2.493 1.432-3.479 0.981-0.986 2.187-1.494 3.62-1.523v0c1.333-0.026 2.431 0.368 3.294 1.185 0.87 0.816 1.317 1.841 1.341 3.074v0c0.026 1.333-0.451 2.486-1.431 3.459-0.981 0.966-2.188 1.464-3.621 1.493zM56.091 2.245v0c-1.3 0.026-2.475-0.408-3.527-1.3-1.051-0.899-1.597-2.365-1.638-4.399v0c-0.023-1.166 0.112-2.259 0.405-3.279 0.3-1.026 0.647-2.027 1.041-3.001 0.401-0.975 0.749-1.922 1.044-2.841 0.302-0.926 0.444-1.839 0.425-2.739v0c-0.016-0.8-0.161-1.37-0.434-1.712-0.274-0.348-0.594-0.518-0.96-0.511v0c-0.567 0.011-1.109 0.389-1.628 1.133v0l-0.354-0.193c0.107-1.336 0.507-2.484 1.202-3.445 0.701-0.967 1.569-1.728 2.605-2.282 1.043-0.554 2.08-0.841 3.114-0.862v0c1.266-0.025 2.374 0.363 3.324 1.164 0.949 0.795 1.442 2.108 1.478 3.942v0c0.022 1.1-0.115 2.263-0.411 3.489-0.289 1.219-0.632 2.433-1.028 3.641-0.389 1.208-0.734 2.332-1.033 3.371-0.293 1.039-0.432 1.926-0.417 2.659v0c0.013 0.633 0.145 1.081 0.397 1.342 0.259 0.262 0.538 0.389 0.837 0.384v0c0.3-0.006 0.588-0.102 0.865-0.288 0.283-0.192 0.489-0.406 0.617-0.642v0l0.352 0.093c0.024 1.233-0.281 2.316-0.916 3.249-0.628 0.926-1.421 1.659-2.376 2.197-0.956 0.532-1.951 0.809-2.984 0.83zM82.976 4.516v0c-1.092-0.13-2.088-0.507-2.987-1.132-0.898-0.631-1.586-1.478-2.064-2.542-0.477-1.064-0.633-2.291-0.467-3.681v0c0.17-1.423 0.709-2.987 1.617-4.692v0c0.561-0.202 1.239-0.54 2.034-1.016 0.795-0.476 1.516-1.034 2.164-1.676 0.648-0.648 1.013-1.319 1.096-2.014v0c0.075-0.629-0.107-1.154-0.547-1.576-0.433-0.421-0.997-0.673-1.693-0.756v0c-0.861-0.103-1.703 0.065-2.527 0.505-0.824 0.439-1.578 1.047-2.262 1.825-0.676 0.772-1.232 1.629-1.666 2.57-0.427 0.936-0.694 1.851-0.801 2.745v0c-0.103 0.861-0.093 1.677 0.03 2.451 0.13 0.767 0.138 1.631 0.024 2.591v0c-0.178 1.489-0.725 2.7-1.642 3.631-0.917 0.931-2.153 1.304-3.708 1.119v0c-1.423-0.17-2.508-0.786-3.254-1.849-0.746-1.062-1.02-2.421-0.824-4.076v0c0.103-0.861 0.345-1.99 0.727-3.388 0.388-1.397 0.85-2.937 1.386-4.618 0.536-1.682 1.069-3.421 1.599-5.217 0.537-1.802 1.013-3.542 1.428-5.218 0.422-1.682 0.714-3.201 0.876-4.558v0c0.087-0.728 0.124-1.402 0.11-2.021-0.006-0.625-0.12-1.135-0.341-1.532v0l0.035-0.298c0.827-0.741 1.694-1.258 2.603-1.552 0.908-0.295 1.776-0.393 2.603-0.294v0c1.258 0.15 2.28 0.725 3.067 1.725 0.787 1 1.076 2.377 0.867 4.132v0c-0.111 0.927-0.37 2.037-0.78 3.331-0.403 1.295-0.866 2.649-1.391 4.064-0.518 1.415-1.038 2.763-1.56 4.044v0c0.854-0.972 1.812-1.966 2.873-2.981 1.061-1.015 2.217-1.84 3.468-2.477 1.252-0.643 2.606-0.878 4.062-0.704v0c1.688 0.201 2.948 0.899 3.779 2.092 0.832 1.187 1.159 2.525 0.981 4.015v0c-0.178 1.489-0.907 3.014-2.186 4.573-1.274 1.56-3.237 2.769-5.891 3.628v0c0.316 1.011 0.809 1.943 1.479 2.795 0.67 0.852 1.434 1.541 2.292 2.065 0.865 0.519 1.694 0.826 2.488 0.922v0c0.397 0.047 0.753 0.023 1.066-0.075v0l0.263 0.334c-1.056 1.821-2.363 3.119-3.919 3.893-1.549 0.769-3.051 1.066-4.507 0.893zM100.274 8.678v0c-2.336-0.681-4.135-1.717-5.396-3.106-1.26-1.395-2.048-2.979-2.364-4.752-0.314-1.779-0.21-3.565 0.313-5.357v0c0.495-1.696 1.318-3.303 2.469-4.821 1.16-1.523 2.575-2.804 4.246-3.845 1.678-1.038 3.545-1.726 5.602-2.064 2.063-0.336 4.231-0.172 6.503 0.491v0c2.816 0.821 4.686 2.054 5.609 3.699 0.931 1.64 1.136 3.356 0.613 5.147v0c-0.448 1.536-1.271 2.834-2.469 3.895-1.19 1.056-2.572 1.781-4.146 2.176-1.572 0.389-3.158 0.35-4.757-0.117v0c-0.832-0.243-1.643-0.618-2.432-1.126-0.789-0.508-1.521-1.155-2.194-1.942v0c-0.419 2.031-0.263 3.639 0.468 4.824 0.731 1.185 1.784 1.979 3.16 2.38v0c0.96 0.28 1.973 0.378 3.039 0.293 1.068-0.091 2.095-0.313 3.079-0.665 0.993-0.356 1.811-0.805 2.456-1.346v0l0.266 0.338c-0.485 1.664-1.244 2.981-2.278 3.95-1.025 0.965-2.204 1.652-3.539 2.062-1.335 0.409-2.717 0.589-4.147 0.54-1.422-0.054-2.789-0.272-4.101-0.654zM105.159-3.96v0c1.024 0.299 1.942 0.247 2.753-0.155 0.814-0.409 1.497-0.966 2.051-1.673 0.553-0.707 0.919-1.364 1.096-1.972v0c0.215-0.736 0.186-1.411-0.086-2.025-0.27-0.621-0.774-1.038-1.51-1.253v0c-0.576-0.168-1.27-0.145-2.083 0.07-0.806 0.216-1.629 0.751-2.467 1.603-0.837 0.846-1.597 2.142-2.28 3.887v0c0.884 0.779 1.726 1.285 2.526 1.518z" opacity="1" transform="matrix(1,0,0,1,0,0)" fill="#ffffff" class="wordmark-text-0" data-fill-palette-color="primary" id="text-0"></path></svg></g></svg></g></svg></g></svg></g><g transform="matrix(1,0,0,1,36.672,0)"><svg viewBox="0 0 118.656 99.42562157756886" height="99.42562157756886" width="118.656"><g><svg xmlns="http://www.w3.org/2000/svg" xmlns:xlink="http://www.w3.org/1999/xlink" version="1.1" x="0" y="0" viewBox="5.24694812666011 12.5 89.50610374667977 75" enable-background="new 0 0 100 100" xml:space="preserve" height="99.42562157756886" width="118.656" class="icon-icon-0" data-fill-palette-color="accent" id="icon-0"><g fill="#f7f7f7" data-fill-palette-color="accent"><path fill="#ffffff" d="M68.9 55.1C61.2 55.1 54.7 60.5 53.1 67.8 50.7 67.4 48.5 67.5 47 67.8 45.4 60.5 38.9 55.1 31.2 55.1 22.3 55.1 15 62.4 15 71.3S22.3 87.5 31.2 87.5C39.2 87.5 45.9 81.6 47.2 74 48.2 73.7 50.6 73.2 53 74 54.3 81.7 60.9 87.5 69 87.5 77.9 87.5 85.2 80.2 85.2 71.3 85.1 62.4 77.8 55.1 68.9 55.1M31.1 81.4C25.5 81.4 21 76.8 21 71.3 21 65.7 25.6 61.2 31.1 61.2 36.7 61.2 41.2 65.8 41.2 71.3 41.3 76.9 36.7 81.4 31.1 81.4M68.9 81.4C63.3 81.4 58.8 76.8 58.8 71.3 58.8 65.7 63.4 61.2 68.9 61.2 74.5 61.2 79 65.8 79 71.3 79 76.9 74.5 81.4 68.9 81.4" data-fill-palette-color="accent"></path><path fill="#ffffff" d="M94.7 45.6C94.3 44 92.7 43 91.1 43.4 87.6 44.2 84.1 44.9 80.6 45.6V29.6C80.3 24.9 77.1 20.6 71.4 17.5 65.5 14.3 58 12.5 50 12.5S34.5 14.2 28.8 17.4 19.8 24.9 19.6 29.5V45.5C16 45 12.5 44.2 9 43.4 7.4 43 5.7 44 5.3 45.6 5 47.3 6 48.9 7.6 49.3 21.7 52.6 35.8 54.3 50 54.3S78.3 52.6 92.4 49.3C94 48.9 95 47.3 94.7 45.6" data-fill-palette-color="accent"></path></g></svg></g></svg></g><g></g></svg></g></svg></g></svg></g><defs></defs></svg><rect width="320" height="360" fill="none" stroke="none" visibility="hidden"></rect></g></svg></g></svg>